<?xml version="1.0" encoding="UTF-8" standalone="no"?><svg xmlns="http://www.w3.org/2000/svg" border="0" data-ac-wrapper-id="2" width="1680" height="933" class="anychart-ui-support" ac-id="ac_stage_3a8dd3e4_0" style="display: block;"><defs><clipPath clip-rule="nonzero" id="ac_clip_3a8dd3e4_10"><path data-ac-wrapper-id="129" id="ac_rect_3a8dd3e4_11" fill="none" stroke="black" d="M 426.4 55.39999999999998 L 1243.6 55.39999999999998 1243.6 872.6 426.4 872.6 426.4 55.39999999999998 Z"/></clipPath><clipPath clip-rule="nonzero" id="ac_clip_3a8dd3e4_14"><path data-ac-wrapper-id="131" id="ac_rect_3a8dd3e4_15" fill="none" stroke="black" d="M 426.4 55.39999999999998 L 1243.6 55.39999999999998 1243.6 872.6 426.4 872.6 426.4 55.39999999999998 Z"/></clipPath><clipPath clip-rule="nonzero" id="ac_clip_3a8dd3e4_18"><path data-ac-wrapper-id="133" id="ac_rect_3a8dd3e4_19" fill="none" stroke="black" d="M 426.4 55.39999999999998 L 1243.6 55.39999999999998 1243.6 872.6 426.4 872.6 426.4 55.39999999999998 Z"/></clipPath></defs><g data-ac-wrapper-id="3" id="ac_layer_3a8dd3e4_1"><g data-ac-wrapper-id="95" role="article" aria-label="sunburst chart , with undefined points. Min value is undefined, max value is undefined." id="ac_chart_3a8dd3e4_2"><g data-ac-wrapper-id="96" id="ac_layer_3a8dd3e4_4"><path data-ac-wrapper-id="97" id="ac_path_3a8dd3e4_3" fill="#ffffff" stroke="none" d="M 0 0 L 1680 0 1680 0 1680 933 1680 933 0 933 0 933 0 0 0 0 Z"/></g><g data-ac-wrapper-id="98" clip-path="url(&quot;#ac_clip_3a8dd3e4_10&quot;)" clipPathUnits="userSpaceOnUse" id="ac_layer_3a8dd3e4_12"><path data-ac-wrapper-id="99" id="ac_path_3a8dd3e4_5" fill="#64b5f6" stroke="#fff" d="M 835 445 A 19 19 0 0 1 835 483 A 19 19 0 0 1 835 445"/><path data-ac-wrapper-id="100" id="ac_path_3a8dd3e4_6" fill="#1976d2" stroke="#fff" d="M 835 426 A 38 38 0 0 1 835 502 L 835 483 A 19 19 0 0 0 835 445 Z"/><path data-ac-wrapper-id="101" id="ac_path_3a8dd3e4_7" fill="#1976d2" stroke="#fff" d="M 835 407 A 57 57 0 0 1 892 464 L 873 464 A 38 38 0 0 0 835 426 Z"/><path data-ac-wrapper-id="102" id="ac_path_3a8dd3e4_8" fill="#1976d2" stroke="#fff" d="M 835 388 A 76 76 0 0 1 911 464 L 892 464 A 57 57 0 0 0 835 407 Z"/><path data-ac-wrapper-id="103" id="ac_path_3a8dd3e4_9" fill="#1976d2" stroke="#fff" d="M 835 369 A 95 95 0 0 1 902.175144212722 396.824855787278 L 888.7401153701776 410.2598846298224 A 76 76 0 0 0 835 388 Z"/><path data-ac-wrapper-id="104" id="ac_path_3a8dd3e4_a" fill="#1976d2" stroke="#fff" d="M 902.175144212722 396.82485578727795 A 95 95 0 0 1 930 464 L 911 464 A 76 76 0 0 0 888.7401153701776 410.25988462982235 Z"/><path data-ac-wrapper-id="105" id="ac_path_3a8dd3e4_b" fill="#1976d2" stroke="#fff" d="M 915.6101730552664 383.38982694473356 A 114 114 0 0 1 940.3222667062867 420.3740887103798 L 922.7685555885722 427.64507392531647 A 95 95 0 0 0 902.175144212722 396.82485578727795 Z"/><path data-ac-wrapper-id="106" id="ac_path_3a8dd3e4_c" fill="#1976d2" stroke="#fff" d="M 940.3222667062867 420.3740887103798 A 114 114 0 0 1 949 464 L 930 464 A 95 95 0 0 0 922.7685555885722 427.64507392531647 Z"/><path data-ac-wrapper-id="107" id="ac_path_3a8dd3e4_d" fill="#1976d2" stroke="#fff" d="M 957.8759778240012 413.10310349544307 A 133 133 0 0 1 968 463.99999999999994 L 949 464 A 114 114 0 0 0 940.3222667062867 420.3740887103798 Z"/><path data-ac-wrapper-id="108" id="ac_path_3a8dd3e4_e" fill="#1976d2" stroke="#fff" d="M 975.4296889417155 405.8321182805064 A 152 152 0 0 1 987 463.99999999999994 L 968 463.99999999999994 A 133 133 0 0 0 957.8759778240012 413.10310349544307 Z"/><path data-ac-wrapper-id="109" id="ac_path_3a8dd3e4_f" fill="#333" stroke="#fff" d="M 992.9834000594301 398.5611330655697 A 171 171 0 0 1 1006 463.99999999999994 L 987 463.99999999999994 A 152 152 0 0 0 975.4296889417155 405.8321182805064 Z" fill-opacity="0.85"/><path data-ac-wrapper-id="110" id="ac_path_3a8dd3e4_g" fill="#1976d2" stroke="#fff" d="M 1010.5371111771445 391.290147850633 A 190 190 0 0 1 1025 463.99999999999994 L 1006 463.99999999999994 A 171 171 0 0 0 992.9834000594301 398.5611330655697 Z"/><path data-ac-wrapper-id="111" id="ac_path_3a8dd3e4_h" fill="#1976d2" stroke="#fff" d="M 1028.090822294859 384.01916263569626 A 209 209 0 0 1 1044 463.99999999999994 L 1025 463.99999999999994 A 190 190 0 0 0 1010.5371111771445 391.290147850633 Z"/><path data-ac-wrapper-id="112" id="ac_path_3a8dd3e4_i" fill="#1976d2" stroke="#fff" d="M 1045.6445334125733 376.7481774207596 A 228 228 0 0 1 1063 463.99999999999994 L 1044 463.99999999999994 A 209 209 0 0 0 1028.090822294859 384.01916263569626 Z"/><path data-ac-wrapper-id="113" id="ac_path_3a8dd3e4_j" fill="#1976d2" stroke="#fff" d="M 1063.1982445302879 369.47719220582286 A 247 247 0 0 1 1082 463.99999999999994 L 1063 463.99999999999994 A 228 228 0 0 0 1045.6445334125733 376.7481774207596 Z"/><path data-ac-wrapper-id="114" id="ac_path_3a8dd3e4_k" fill="#1976d2" stroke="#fff" d="M 1080.7519556480024 362.2062069908862 A 266 266 0 0 1 1101 463.99999999999994 L 1082 463.99999999999994 A 247 247 0 0 0 1063.1982445302879 369.47719220582286 Z"/><path data-ac-wrapper-id="115" id="ac_path_3a8dd3e4_l" fill="#1976d2" stroke="#fff" d="M 1098.3056667657168 354.93522177594946 A 285 285 0 0 1 1120 463.99999999999994 L 1101 463.99999999999994 A 266 266 0 0 0 1080.7519556480024 362.2062069908862 Z"/><path data-ac-wrapper-id="116" id="ac_path_3a8dd3e4_m" fill="#1976d2" stroke="#fff" d="M 1115.859377883431 347.6642365610128 A 304 304 0 0 1 1139 463.99999999999994 L 1120 463.99999999999994 A 285 285 0 0 0 1098.3056667657168 354.93522177594946 Z"/><path data-ac-wrapper-id="117" id="ac_path_3a8dd3e4_n" fill="#1976d2" stroke="#fff" d="M 1133.4130890011456 340.39325134607606 A 323 323 0 0 1 1158 463.99999999999994 L 1139 463.99999999999994 A 304 304 0 0 0 1115.859377883431 347.6642365610128 Z"/><path data-ac-wrapper-id="118" id="ac_path_3a8dd3e4_o" fill="#1976d2" stroke="#fff" d="M 1150.9668001188602 333.1222661311394 A 342 342 0 0 1 1177 463.99999999999994 L 1158 463.99999999999994 A 323 323 0 0 0 1133.4130890011456 340.39325134607606 Z"/><path data-ac-wrapper-id="119" id="ac_path_3a8dd3e4_p" fill="#1976d2" stroke="#fff" d="M 1168.5205112365745 325.85128091620265 A 361 361 0 0 1 1196 463.9999999999999 L 1177 463.99999999999994 A 342 342 0 0 0 1150.9668001188602 333.1222661311394 Z"/><path data-ac-wrapper-id="120" id="ac_path_3a8dd3e4_q" fill="#1976d2" stroke="#fff" d="M 1186.074222354289 318.580295701266 A 380 380 0 0 1 1215 463.9999999999999 L 1196 463.9999999999999 A 361 361 0 0 0 1168.5205112365745 325.85128091620265 Z"/><path data-ac-wrapper-id="121" id="ac_path_3a8dd3e4_r" fill="#1976d2" stroke="#fff" d="M 1203.6279334720034 311.30931048632925 A 399 399 0 0 1 1234 463.9999999999999 L 1215 463.9999999999999 A 380 380 0 0 0 1186.074222354289 318.580295701266 Z"/><path data-ac-wrapper-id="122" id="ac_path_3a8dd3e4_s" fill="#1976d2" stroke="#fff" d="M 892 464 A 57 57 0 0 1 835 521 L 835 502 A 38 38 0 0 0 873 464 Z"/><path data-ac-wrapper-id="123" id="ac_path_3a8dd3e4_t" fill="#1976d2" stroke="#fff" d="M 911 464 A 76 76 0 0 1 835 540 L 835 521 A 57 57 0 0 0 892 464 Z"/><path data-ac-wrapper-id="124" id="ac_path_3a8dd3e4_u" fill="#1976d2" stroke="#fff" d="M 930 464 A 95 95 0 0 1 835 559 L 835 540 A 76 76 0 0 0 911 464 Z"/><path data-ac-wrapper-id="125" id="ac_path_3a8dd3e4_v" fill="#1976d2" stroke="#fff" d="M 949 464 A 114 114 0 0 1 835 578 L 835 559 A 95 95 0 0 0 930 464 Z"/><path data-ac-wrapper-id="126" id="ac_path_3a8dd3e4_w" fill="#ef6c00" stroke="#fff" d="M 835 502 A 38 38 0 0 1 835 426 L 835 445 A 19 19 0 0 0 835 483 Z"/><path data-ac-wrapper-id="127" id="ac_path_3a8dd3e4_x" fill="#ef6c00" stroke="#fff" d="M 835 521 A 57 57 0 0 1 835 407 L 835 426 A 38 38 0 0 0 835 502 Z"/><path data-ac-wrapper-id="128" id="ac_path_3a8dd3e4_y" fill="#ef6c00" stroke="#fff" d="M 835 540 A 76 76 0 0 1 835 388 L 835 407 A 57 57 0 0 0 835 521 Z"/></g><g data-ac-wrapper-id="130" pointer-events="none" clip-path="url(&quot;#ac_clip_3a8dd3e4_14&quot;)" clipPathUnits="userSpaceOnUse" id="ac_layer_3a8dd3e4_16"/><g data-ac-wrapper-id="132" pointer-events="none" clip-path="url(&quot;#ac_clip_3a8dd3e4_18&quot;)" clipPathUnits="userSpaceOnUse" id="ac_layer_3a8dd3e4_1a"/><g data-ac-wrapper-id="134" id="ac_layer_3a8dd3e4_1b"/></g></g></svg>